<svg xmlns="http://www.w3.org/2000/svg" viewBox="0 0 960 540"><defs><marker id="arrow" markerWidth="8" markerHeight="8" refX="6" refY="3" orient="auto"><path d="M0 0 L6 3 L0 6" fill="#a13f6c"/></marker></defs><rect x="0" y="0" width="960" height="540" rx="0" fill="#fff9fc" stroke="none" stroke-width="3"/><rect x="40" y="65" width="390" height="410" rx="20" fill="#3c2834" stroke="#3c2834" stroke-width="3"/><text x="235" y="145" text-anchor="middle" fill="#f6dce8" font-family="system-ui,sans-serif" font-size="32" font-weight="600">index.html</text><text x="235" y="235" text-anchor="middle" fill="#f6dce8" font-family="system-ui,sans-serif" font-size="34" font-weight="600">&lt;h1&gt;</text><text x="235" y="305" text-anchor="middle" fill="#f6dce8" font-family="system-ui,sans-serif" font-size="34" font-weight="600">&lt;p&gt;</text><text x="235" y="385" text-anchor="middle" fill="#f6dce8" font-family="system-ui,sans-serif" font-size="34" font-weight="600">&lt;a href="…"&gt;</text><path d="M449 267 L510 267" fill="none" stroke="#a13f6c" stroke-width="4" marker-end="url(#arrow)"/><rect x="535" y="65" width="385" height="410" rx="20" fill="#fff" stroke="#ead4de" stroke-width="3"/><rect x="535" y="65" width="385" height="55" rx="20" fill="#f1e8ed" stroke="#ead4de" stroke-width="3"/><circle cx="563" cy="91" r="7" fill="#a13f6c"/><circle cx="588" cy="91" r="7" fill="#edb5cc"/><path d="M580 211 L843 211" fill="none" stroke="#a13f6c" stroke-width="4" /><path d="M580 264 L864 264" fill="none" stroke="#baa6b0" stroke-width="4" /><path d="M580 294 L800 294" fill="none" stroke="#baa6b0" stroke-width="4" /><rect x="580" y="340" width="165" height="65" rx="20" fill="#a13f6c" stroke="#a13f6c" stroke-width="3"/></svg>